<?xml version="1.0" encoding="UTF-8"?> <svg xmlns="http://www.w3.org/2000/svg" xmlns:xlink="http://www.w3.org/1999/xlink" width="638" height="150" viewBox="0 0 638 150"><defs><clipPath id="a"><rect width="638" height="150" transform="translate(2991 -3574)" fill="#fff"></rect></clipPath><linearGradient id="b" x1="0.5" y1="1" x2="0.5" gradientUnits="objectBoundingBox"><stop offset="0" stop-color="#00baed"></stop><stop offset="0.19" stop-color="#00b4e9"></stop><stop offset="0.45" stop-color="#00a3dd"></stop><stop offset="0.75" stop-color="#0087c9"></stop><stop offset="0.97" stop-color="#006eb7"></stop></linearGradient><linearGradient id="c" x1="0.499" x2="0.499" xlink:href="#b"></linearGradient><linearGradient id="d" x1="0.499" y1="0.995" x2="0.499" xlink:href="#b"></linearGradient><linearGradient id="e" y1="0.997" xlink:href="#b"></linearGradient><linearGradient id="i" x1="0.501" x2="0.501" xlink:href="#b"></linearGradient><linearGradient id="j" y1="0.997" xlink:href="#b"></linearGradient></defs><g transform="translate(-2991 3574)" clip-path="url(#a)"><g transform="translate(2991 -3574)"><rect width="150" height="150" fill="url(#b)"></rect><path d="M65.853,31.285H32.338V27a4.134,4.134,0,0,1,4.134-4.1H65.853V14.49H36.062A12.55,12.55,0,0,0,23.81,26.779v21.3h8.379V39.738H65.7Z" transform="translate(64.857 39.47)" fill="#fff"></path><rect width="33.59" height="8.416" transform="translate(97.12 87.624)" fill="#fff"></rect><path d="M55.639,48.154H43.052a4.208,4.208,0,0,1-4.134-4.134V14.49H30.577V44.281a12.065,12.065,0,0,0,.633,3.724H17.73A4.208,4.208,0,0,1,13.6,43.872V14.49H5.18V44.281A11.917,11.917,0,0,0,8.9,52.921a11.917,11.917,0,0,0,8.64,3.724h38.1Z" transform="translate(14.11 39.47)" fill="#fff"></path><rect width="8.416" height="33.59" transform="translate(69.786 53.96)" fill="#fff"></rect><rect width="13.518" height="53.997" transform="translate(189.287 54.779)" fill="url(#c)"></rect><path d="M88.73,11.07H54.47V24.588H88.321A6.219,6.219,0,0,1,93.05,26.6a6.852,6.852,0,0,1,1.9,4.878,6.219,6.219,0,0,1-2.048,4.58,6.368,6.368,0,0,1-4.58,2.048H69.068V51.773H88.73a18.843,18.843,0,0,0,13.853-5.921,19.1,19.1,0,0,0,6-13.965v-1.08a18.916,18.916,0,0,0-5.956-13.776A18.843,18.843,0,0,0,88.73,11.07Z" transform="translate(148.373 30.154)" fill="url(#d)"></path><path d="M137.865,26.524a6.368,6.368,0,0,1,4.655-1.936h47.443V11.07H142.11a19.1,19.1,0,0,0-13.779,5.884,18.843,18.843,0,0,0-5.921,13.853V51.773h54.034V65.179h13.518V38.106H135.779V31.216a6.443,6.443,0,0,1,2.085-4.692Z" transform="translate(333.436 30.154)" fill="url(#e)"></path><path d="M122.41,39.125h54V25.57l-54,.037Z" transform="translate(333.437 69.651)" fill="url(#b)"></path><path d="M103.729,16.954a18.62,18.62,0,0,0-5.958,13.853V64.993h13.518v-8.3h0V31.217a6.368,6.368,0,0,1,2.011-4.692,6.517,6.517,0,0,1,4.618-1.936h47.406V11.07h-47.7a19.178,19.178,0,0,0-13.89,5.884Z" transform="translate(266.318 30.154)" fill="url(#b)"></path><path d="M127.515,25.58h-26.1V39.1h54V25.58Z" transform="translate(276.234 69.678)" fill="url(#b)"></path><path d="M74.06,68.734H87.578V14.7H74.06Z" transform="translate(201.734 40.042)" fill="url(#i)"></path><path d="M111.96,11.07H77.7V24.588H111.55a6.629,6.629,0,0,1,6.629,6.629v6.889H92.112V51.773h26.068V78.808H131.7v-48a18.62,18.62,0,0,0-5.958-13.779A18.843,18.843,0,0,0,111.96,11.07Z" transform="translate(211.649 30.154)" fill="url(#j)"></path></g></g></svg> 